# xmcd
#
# Track frame offsets: 
#        150
#        14152
#        29765
#        43292
#        61272
#        80627
#        101362
#        118017
#        131620
#        145667
#        160350
#        174307
#        190020
#        202302
#        215752
#        230027
#        242039
#        256136
#        271126
#        284774
#
# Disc length: 3975 seconds
#
# Revision: 0
# Processed by: cddbd v1.5PL3 Copyright (c) Steve Scherf et al.
# Submitted via: ExactAudioCopy v0.95a3
#
DISCID=380f8514
DTITLE=Louis Armstrong - Sugar and More
DYEAR=1900
DGENRE=Blues
TTITLE0=I Want A Little Girl
TTITLE1=Sugar
TTITLE2=Do You Know What Is Means To Miss New Orleans
TTITLE3=Ain't Misbehaven'
TTITLE4=Back O'Town Blues
TTITLE5=Save It, Pretty Mama
TTITLE6=St.James Infirmary
TTITLE7=Jack-Armstrong Blues
TTITLE8=Rockin' Chair
TTITLE9=Someday You'll Be Sorry
TTITLE10=I Gotta Right To Sing The Blues
TTITLE11=Basin Street Blues
TTITLE12=St.Louis Blues
TTITLE13=The Blues Are Brewin'
TTITLE14=Where The Blues Were Born
TTITLE15=Blues For Yesterday
TTITLE16=Blues In The South
TTITLE17=Back O'Town Blues (II)
TTITLE18=Fifty-Fifty Blues
TTITLE19=Do You Know What It Means To Miss New Orleans (II)
EXTD=
EXTT0=
EXTT1=
EXTT2=
EXTT3=
EXTT4=
EXTT5=
EXTT6=
EXTT7=
EXTT8=
EXTT9=
EXTT10=
EXTT11=
EXTT12=
EXTT13=
EXTT14=
EXTT15=
EXTT16=
EXTT17=
EXTT18=
EXTT19=
PLAYORDER=
